<svg width="162" height="162" viewBox="0 0 162 162" fill="none" xmlns="http://www.w3.org/2000/svg">
<path d="M81.0098 103.781C84.5047 103.781 87.3379 106.614 87.3379 110.109C87.3379 113.604 84.5047 116.437 81.0098 116.438C77.5148 116.438 74.6816 113.604 74.6816 110.109C74.6816 106.614 77.5148 103.781 81.0098 103.781Z" fill="url(#paint0_linear_32_339)"/>
<path d="M81 65.8125C84.3881 65.8125 87.0354 68.738 86.6982 72.1094L84.4785 94.3047C84.2998 96.092 82.7962 97.4531 81 97.4531C79.2038 97.4531 77.7002 96.092 77.5215 94.3047L75.3018 72.1094C74.9646 68.738 77.6119 65.8125 81 65.8125Z" fill="url(#paint1_linear_32_339)"/>
<path fill-rule="evenodd" clip-rule="evenodd" d="M96.1875 0C98.9834 0 101.25 2.26656 101.25 5.0625C101.25 7.85844 98.9834 10.125 96.1875 10.125H91.125V20.9688C125.474 25.8839 151.875 55.4189 151.875 91.125C151.875 113.982 141.052 134.309 124.269 147.264L130.363 153.357C132.34 155.334 132.34 158.541 130.363 160.518C128.386 162.494 125.181 162.494 123.204 160.518L115.651 152.965C105.403 158.719 93.5785 162 81 162C68.4215 162 56.5971 158.719 46.3486 152.965L38.7959 160.518C36.8189 162.494 33.6136 162.494 31.6367 160.518C29.6597 158.541 29.6597 155.334 31.6367 153.357L37.7314 147.264C20.9484 134.309 10.125 113.982 10.125 91.125C10.125 55.4189 36.5259 25.8839 70.875 20.9688V10.125H65.8125C63.0166 10.125 60.75 7.85844 60.75 5.0625C60.75 2.26656 63.0166 0 65.8125 0H96.1875ZM81 40.5C53.0406 40.5 30.375 63.1656 30.375 91.125C30.375 119.084 53.0406 141.75 81 141.75C108.959 141.75 131.625 119.084 131.625 91.125C131.625 63.1656 108.959 40.5 81 40.5Z" fill="url(#paint2_linear_32_339)"/>
<path d="M25.3125 10.125C32.9401 10.125 39.7801 13.4992 44.4209 18.8359C29.0522 26.6281 16.5031 39.1772 8.71094 54.5459C3.37419 49.9051 0 43.0651 0 35.4375C0 21.4578 11.3328 10.125 25.3125 10.125Z" fill="url(#paint3_linear_32_339)"/>
<path d="M136.688 10.125C150.667 10.125 162 21.4578 162 35.4375C162 43.0651 158.626 49.9051 153.289 54.5459C145.497 39.1772 132.948 26.6281 117.579 18.8359C122.22 13.4992 129.06 10.125 136.688 10.125Z" fill="url(#paint4_linear_32_339)"/>
<defs>
<linearGradient id="paint0_linear_32_339" x1="81" y1="0" x2="81" y2="162" gradientUnits="userSpaceOnUse">
<stop stop-color="#00A5F3"/>
<stop offset="1" stop-color="#1E2B62"/>
</linearGradient>
<linearGradient id="paint1_linear_32_339" x1="81" y1="0" x2="81" y2="162" gradientUnits="userSpaceOnUse">
<stop stop-color="#00A5F3"/>
<stop offset="1" stop-color="#1E2B62"/>
</linearGradient>
<linearGradient id="paint2_linear_32_339" x1="81" y1="0" x2="81" y2="162" gradientUnits="userSpaceOnUse">
<stop stop-color="#00A5F3"/>
<stop offset="1" stop-color="#1E2B62"/>
</linearGradient>
<linearGradient id="paint3_linear_32_339" x1="81" y1="0" x2="81" y2="162" gradientUnits="userSpaceOnUse">
<stop stop-color="#00A5F3"/>
<stop offset="1" stop-color="#1E2B62"/>
</linearGradient>
<linearGradient id="paint4_linear_32_339" x1="81" y1="0" x2="81" y2="162" gradientUnits="userSpaceOnUse">
<stop stop-color="#00A5F3"/>
<stop offset="1" stop-color="#1E2B62"/>
</linearGradient>
</defs>
</svg>
